Coordinates
version=1
nRows=20
nColumns=38
inDegrees=no

Units are S.I. units (second, meters, Newtons, ...)
If the header above contains a line with 'inDegrees', this indicates whether rotational values are in degrees (yes) or radians (no).

endheader
time	pelvis_tilt	pelvis_list	pelvis_rotation	pelvis_tx	pelvis_ty	pelvis_tz	hip_flexion_r	hip_adduction_r	hip_rotation_r	knee_angle_r	ankle_angle_r	subtalar_angle_r	mtp_angle_r	hip_flexion_l	hip_adduction_l	hip_rotation_l	knee_angle_l	ankle_angle_l	subtalar_angle_l	mtp_angle_l	lumbar_extension	lumbar_bending	lumbar_rotation	arm_flex_r	arm_add_r	arm_rot_r	elbow_flex_r	pro_sup_r	wrist_flex_r	wrist_dev_r	arm_flex_l	arm_add_l	arm_rot_l	elbow_flex_l	pro_sup_l	wrist_flex_l	wrist_dev_l
10	0.361241	1.39013	1.25436	0.64688	-0.208539	0.747307	1.06439	-0.0243289	-0.0708985	1.39246	-0.118044	0	0	1.06376	-0.330637	-0.269859	1.48944	-0.149935	0	0	-0.686484	0.11759	-0.119431	0.737133	-0.211058	0.767464	0.330909	1.04004	0	0	0.440844	-0.503161	0.474396	0.665504	0.848347	0	0
10.01	0.355435	1.38656	1.25955	0.646745	-0.208238	0.746812	1.06869	-0.0237084	-0.0700803	1.39339	-0.117989	0	0	1.06788	-0.330857	-0.269527	1.49035	-0.149484	0	0	-0.683291	0.117457	-0.117204	0.735671	-0.212539	0.761296	0.329367	1.04363	0	0	0.441867	-0.501756	0.480378	0.66604	0.841351	0	0
10.02	0.347054	1.38267	1.26756	0.646519	-0.207906	0.746379	1.07329	-0.023631	-0.0690052	1.39417	-0.117826	0	0	1.07208	-0.330323	-0.269698	1.49072	-0.14887	0	0	-0.679852	0.117209	-0.114772	0.733609	-0.21463	0.753288	0.328769	1.04762	0	0	0.443679	-0.499844	0.487331	0.665487	0.835226	0	0
10.03	0.349434	1.38425	1.26511	0.646161	-0.20795	0.746418	1.07191	-0.0236825	-0.068302	1.39471	-0.117637	0	0	1.0705	-0.329455	-0.269509	1.49104	-0.148192	0	0	-0.681675	0.118106	-0.112816	0.733792	-0.215747	0.745905	0.327294	1.0525	0	0	0.447033	-0.498484	0.495812	0.663883	0.829678	0	0
10.04	0.356606	1.38689	1.25769	0.645875	-0.208013	0.746605	1.06879	-0.0230319	-0.0679135	1.39468	-0.117436	0	0	1.06755	-0.329439	-0.269243	1.49154	-0.147509	0	0	-0.684689	0.119403	-0.110823	0.734726	-0.216168	0.740858	0.325401	1.05803	0	0	0.449778	-0.497329	0.50273	0.662506	0.825031	0	0
10.05	0.383424	1.39174	1.23073	0.646304	-0.207961	0.747284	1.05219	0.0124297	-0.0724515	1.35557	-0.100493	0	0	1.06174	-0.33406	-0.268013	1.49213	-0.147518	0	0	-0.691338	0.121519	-0.106498	0.735361	-0.215161	0.734483	0.32278	1.06861	0	0	0.454	-0.497468	0.512099	0.660581	0.817329	0	0
10.06	0.390675	1.39384	1.22365	0.646002	-0.207999	0.747534	1.04921	0.0128882	-0.0723056	1.35504	-0.0957666	0	0	1.05923	-0.333814	-0.267783	1.49229	-0.147355	0	0	-0.693804	0.122813	-0.105291	0.736337	-0.214829	0.732097	0.320854	1.07456	0	0	0.455492	-0.496091	0.51485	0.658641	0.813383	0	0
10.07	0.40108	1.39728	1.21337	0.645664	-0.208047	0.747967	1.04427	0.0133629	-0.072177	1.35385	-0.0906573	0	0	1.05484	-0.333668	-0.2678	1.49215	-0.14673	0	0	-0.697159	0.124744	-0.105668	0.745538	-0.219212	0.797067	0.318249	1.00713	0	0	0.454786	-0.492921	0.507532	0.654951	0.821048	0	0
10.08	0.400477	1.39846	1.21454	0.645313	-0.207936	0.74822	1.04223	0.0127322	-0.0715407	1.35293	-0.0908067	0	0	1.05289	-0.332205	-0.268408	1.49146	-0.146689	0	0	-0.698092	0.125023	-0.105038	0.745781	-0.220136	0.800046	0.317887	1.00266	0	0	0.455757	-0.490442	0.506281	0.653095	0.823844	0	0
10.09	0.399376	1.39884	1.21563	0.64493	-0.207861	0.748626	1.04133	0.0123741	-0.0705193	1.35208	-0.0912398	0	0	1.05129	-0.331104	-0.269223	1.48998	-0.146767	0	0	-0.698912	0.125161	-0.103612	0.746137	-0.221329	0.802547	0.317662	0.997867	0	0	0.457101	-0.487665	0.504948	0.651303	0.82631	0	0
10.1	0.396673	1.3992	1.21895	0.644614	-0.207655	0.748881	1.04014	0.0116577	-0.0698496	1.35118	-0.0915229	0	0	1.05013	-0.329932	-0.270087	1.48923	-0.146963	0	0	-0.698888	0.12511	-0.102668	0.745512	-0.222343	0.804453	0.317331	0.992745	0	0	0.458231	-0.48525	0.504307	0.6495	0.828909	0	0
10.11	0.396407	1.3985	1.21929	0.644305	-0.2075	0.749191	1.04025	0.0117209	-0.0692403	1.35049	-0.0923304	0	0	1.04999	-0.329621	-0.27037	1.48819	-0.147249	0	0	-0.698354	0.125495	-0.10084	0.745156	-0.223592	0.806589	0.316973	0.986967	0	0	0.459526	-0.483108	0.504557	0.648516	0.831855	0	0
10.12	0.394284	1.39765	1.22173	0.644	-0.207244	0.749501	1.04014	0.0114854	-0.0687636	1.34937	-0.0934782	0	0	1.0498	-0.32902	-0.270786	1.48695	-0.147497	0	0	-0.697273	0.125718	-0.0989748	0.744446	-0.225361	0.809543	0.316561	0.979227	0	0	0.460769	-0.481318	0.506516	0.648689	0.836119	0	0
10.13	0.390031	1.39618	1.22619	0.643669	-0.206924	0.74984	1.04061	0.0111391	-0.0681872	1.34802	-0.0961232	0	0	1.04998	-0.32826	-0.271389	1.48533	-0.147583	0	0	-0.695447	0.125757	-0.0968078	0.743719	-0.22774	0.813749	0.316002	0.968424	0	0	0.462141	-0.47961	0.509741	0.649256	0.840336	0	0
10.14	0.384738	1.39436	1.23149	0.643386	-0.206502	0.750277	1.04095	0.0109426	-0.0676346	1.34609	-0.0908695	0	0	1.04999	-0.327714	-0.27251	1.48321	-0.147663	0	0	-0.693733	0.124973	-0.0925991	0.731619	-0.220266	0.708562	0.312328	1.07999	0	0	0.466023	-0.47889	0.521848	0.650936	0.834742	0	0
10.15	0.358884	1.39003	1.25785	0.642314	-0.206103	0.750283	1.0546	-0.0281224	-0.0622302	1.38248	-0.110426	0	0	1.05293	-0.321674	-0.274436	1.48055	-0.146297	0	0	-0.686685	0.124056	-0.0931421	0.729273	-0.222946	0.703099	0.312413	1.07557	0	0	0.465255	-0.475135	0.521615	0.650789	0.843	0	0
10.16	0.398233	1.3983	1.21842	0.642715	-0.206076	0.751921	1.03235	0.0111134	-0.0678906	1.3412	-0.0965837	0	0	1.04157	-0.327004	-0.273086	1.47907	-0.146831	0	0	-0.695174	0.128382	-0.0935617	0.747645	-0.230003	0.833141	0.307915	0.923441	0	0	0.462526	-0.478383	0.519434	0.654064	0.848419	0	0
10.17	0.409776	1.40148	1.20718	0.642382	-0.205959	0.752937	1.02656	0.0114579	-0.0681477	1.33867	-0.102959	0	0	1.036	-0.326748	-0.273006	1.47688	-0.146655	0	0	-0.696662	0.13021	-0.0941554	0.750591	-0.22859	0.835809	0.303584	0.906548	0	0	0.4609	-0.479514	0.520233	0.65703	0.854561	0	0
10.18	0.404066	1.40519	1.21295	0.641168	-0.205928	0.753959	1.0312	-0.030549	-0.0639064	1.38483	-0.112176	0	0	1.02927	-0.321627	-0.275434	1.47356	-0.146017	0	0	-0.69692	0.130934	-0.0972108	0.754195	-0.228375	0.839447	0.299569	0.89622	0	0	0.458884	-0.479402	0.520335	0.658826	0.864204	0	0
10.19	0.431562	1.40797	1.18539	0.641707	-0.205478	0.755324	1.01353	0.0125662	-0.0678498	1.33172	-0.104528	0	0	1.02326	-0.326065	-0.274275	1.47127	-0.146412	0	0	-0.698723	0.132682	-0.0950941	0.755378	-0.226819	0.843844	0.295401	0.888641	0	0	0.458145	-0.482294	0.523487	0.660863	0.878498	0	0
